<mxfile modified="2024-07-05T08:14:22.245Z" host="app.diagrams.net" agent="Mozilla/5.0 (Windows NT 10.0; Win64; x64) AppleWebKit/537.36 (KHTML, like Gecko) Chrome/126.0.0.0 Safari/537.36" etag="qbNhGWayPfO83rfkJFfq" version="24.6.4" type="device">
  <diagram id="WI9T0HZ2pTsCkuznbFz-" name="Page-1">
    <mxGraphModel dx="1630" dy="772" grid="1" gridSize="10" guides="1" tooltips="1" connect="1" arrows="1" fold="1" page="1" pageScale="1" pageWidth="827" pageHeight="1169" math="0" shadow="0">
      <root>
        <mxCell id="0" />
        <mxCell id="1" parent="0" />
        <mxCell id="VYeD_TeNYAqcukjlerHe-37" style="edgeStyle=orthogonalEdgeStyle;rounded=0;orthogonalLoop=1;jettySize=auto;html=1;entryX=0;entryY=0.5;entryDx=0;entryDy=0;exitX=1;exitY=0.5;exitDx=0;exitDy=0;" edge="1" parent="1" source="28heIlWIprtDJxRmpmQK-6" target="VYeD_TeNYAqcukjlerHe-16">
          <mxGeometry relative="1" as="geometry" />
        </mxCell>
        <mxCell id="VYeD_TeNYAqcukjlerHe-38" style="edgeStyle=orthogonalEdgeStyle;rounded=0;orthogonalLoop=1;jettySize=auto;html=1;entryX=0;entryY=0.438;entryDx=0;entryDy=0;entryPerimeter=0;" edge="1" parent="1" source="28heIlWIprtDJxRmpmQK-6" target="VYeD_TeNYAqcukjlerHe-9">
          <mxGeometry relative="1" as="geometry" />
        </mxCell>
        <mxCell id="VYeD_TeNYAqcukjlerHe-40" value="" style="group" vertex="1" connectable="0" parent="1">
          <mxGeometry y="325" width="150" height="320" as="geometry" />
        </mxCell>
        <mxCell id="VYeD_TeNYAqcukjlerHe-49" value="" style="group" vertex="1" connectable="0" parent="VYeD_TeNYAqcukjlerHe-40">
          <mxGeometry y="-20" width="150" height="340" as="geometry" />
        </mxCell>
        <mxCell id="28heIlWIprtDJxRmpmQK-2" value="" style="rounded=0;whiteSpace=wrap;html=1;fillColor=#f5f5f5;strokeColor=none;fontColor=#333333;labelBackgroundColor=none;" parent="VYeD_TeNYAqcukjlerHe-49" vertex="1">
          <mxGeometry y="20" width="150" height="320" as="geometry" />
        </mxCell>
        <mxCell id="VYeD_TeNYAqcukjlerHe-1" value="&lt;div&gt;&lt;font style=&quot;text-align: left; text-wrap: wrap; font-size: 18px;&quot;&gt;&lt;b&gt;&lt;br&gt;&lt;/b&gt;&lt;/font&gt;&lt;/div&gt;&lt;font style=&quot;text-align: left; text-wrap: wrap; font-size: 18px;&quot;&gt;&lt;b&gt;&lt;div&gt;&lt;font style=&quot;text-align: left; text-wrap: wrap; font-size: 18px;&quot;&gt;&lt;b&gt;&lt;br&gt;&lt;/b&gt;&lt;/font&gt;&lt;/div&gt;&lt;div&gt;&lt;font style=&quot;text-align: left; text-wrap: wrap; font-size: 18px;&quot;&gt;&lt;b&gt;&lt;br&gt;&lt;/b&gt;&lt;/font&gt;&lt;/div&gt;&lt;div&gt;&lt;font style=&quot;text-align: left; text-wrap: wrap; font-size: 18px;&quot;&gt;&lt;b&gt;&lt;br&gt;&lt;/b&gt;&lt;/font&gt;&lt;/div&gt;&lt;div&gt;&lt;font style=&quot;text-align: left; text-wrap: wrap; font-size: 18px;&quot;&gt;&lt;b&gt;&lt;br&gt;&lt;/b&gt;&lt;/font&gt;&lt;/div&gt;&lt;div&gt;&lt;b style=&quot;background-color: initial;&quot;&gt;Web/ Desktop / Mobile Client&lt;/b&gt;&lt;br&gt;&lt;/div&gt;&lt;/b&gt;&lt;/font&gt;&lt;div style=&quot;text-align: left; text-wrap: wrap;&quot;&gt;&lt;font style=&quot;font-size: 14px;&quot;&gt;&lt;b&gt;&lt;br&gt;&lt;/b&gt;&lt;/font&gt;&lt;/div&gt;&lt;div style=&quot;text-align: left; text-wrap: wrap;&quot;&gt;&lt;font style=&quot;font-size: 14px;&quot;&gt;Javascript,Redux, TypeScript&lt;/font&gt;&lt;/div&gt;&lt;div style=&quot;text-align: left; text-wrap: wrap;&quot;&gt;&lt;font style=&quot;font-size: 14px;&quot;&gt;React, Bootstrap&lt;/font&gt;&lt;/div&gt;" style="verticalLabelPosition=bottom;aspect=fixed;html=1;shape=mxgraph.salesforce.web;" vertex="1" parent="VYeD_TeNYAqcukjlerHe-49">
          <mxGeometry width="149.37" height="118" as="geometry" />
        </mxCell>
        <mxCell id="VYeD_TeNYAqcukjlerHe-41" value="" style="group" vertex="1" connectable="0" parent="1">
          <mxGeometry x="250.63" y="370" width="180" height="210" as="geometry" />
        </mxCell>
        <mxCell id="VYeD_TeNYAqcukjlerHe-13" value="&#xa;" style="shape=image;verticalLabelPosition=bottom;labelBackgroundColor=default;verticalAlign=top;aspect=fixed;imageAspect=0;image=data:image/png,iVBORw0KGgoAAAANSUhEUgAAAHoAAABwCAYAAADRwmSCAAAAAXNSR0IArs4c6QAAAARnQU1BAACxjwv8YQUAAAAJcEhZcwAADsMAAA7DAcdvqGQAAA8uSURBVHhe7Z0JdBRFGsf/zU1COIJANHLfhAQDBAVEOQTEC8IhiC7rAoKLxKdcorAcoiK3yqECisqxu29XbkFQE5ErkUvkEnCzWeQImHBEQYKJs/V1fzFDMsl0d7pm2kz/fPXorxIwL7+pr6q6q6oVAC5RHIo5JfhPh2KOIzpAcEQHCI7oAMERHSA4ogMER3SA4IgOEBzRAYIjOkBwRAcIjugAwREdIDiiAwRHdIBQrJ9HR0VFYcGCBRzp45577uGr4geJLpYlMjLSZYSNGzd6/HeKQynWqVu44yt9KAoluOKJI9oNR7QdiG4BjH6WA334QvQcpRVf2Zs/hujhg4Ftm4HJ48VoqT1Xeke26DeU1ngWTbBD6Y47EMq19sTeoiuGAEsXArNe4QrBvNeB8uU5KByZogegDp5BY/X6TtyCPUoPPI1GamxH7Cu6S0dgx1bg0ViuYBrW12TrQJboOqiA+UoMR7lQ3TKlnfhqKa6xD/YU/eJoYM0q8RutzRV5GNgPGDKIg4KRJZqEVkYZjm7mCdQVrfsBdEEY19gDe4kmsauFYBLtDWrVUc058IwM0RMQiftxG0eeaYAQfKp0Ed9b+M/nS+wjmlI0per7RMrWi5cUbrVoaqVTlCiOvDNFaYH1SifURjDX+A97iG4qBjU06KLBlxFiWgKvT+UgP1aKDhb97gKlDUf66SFa/3QlmiP/YQ/Rx44DcWM5MMiIp4A+PTm4GStFk2RKyUb5AVcR59rDkf+wT+r+cCWw/B8cGIRSeK2aHORilejhaKgOsswwUkhORyZH/sNeg7FRLwLHT3JggMqVhOzpHORihegWqCJG2cZTNjEdh7EJZzjyL/YSnSk++STbDF07A+NHcaBhVLQnaCpV+BDNMwk4j0mugxz5H3uJJrbvAqbmb526eGmMdqOFKWqLnqm0RFtU40g/vyBb9Mtfc2QP7CeamDMf2PwZBwahFM6j96KI7o1aeB5NOTIGST6ODI7sgT1FE5TC0y9yYAC66cLza7OiwxEkRtn5b3HqYSm+x4dI5sg+2Ff0mbPm++t+scDTQ0yLpn65Gsqp10Y4jMtilG2vlJ2DfUUTazYACxdzYJCZ03CjeTMO9EGixyECD+N2rjEGzZez1ZU79sPeookXpwB79nFgjPRFc/hKH2UPnsaryh0cGeNF1wHswAWOjFGuhL7HrkXBN6Ij7gK2XAGGvwZE3c2VBjCZwn/LzsbIkSM5KpxMMbWbNXMWR8ZYhx8wG0c50kdIqcroWW0Q3mz8MVZG7uRaeVCnJD/XDJ0m+k23ZUBpov/d/Ykom4B98VzphaeeFKNx8UExQup5oFE0li9fjieeeIIrPTNkyBAceX+9ulrECKliMhXj2qz+6Y2qpaujc2hPtdxb5UGu1Xjkmwh8f83Yh8UIvhH9nki9tzfgIA9X0jThJD7xU64sgCVi2tW/Dwc6YNEhISHYv38/GjTw/DMsWbIEw4YNU1eKGBXdz/UV1ooWXRBhZWuicxWS+wjaVe7Ktfl549RLWHza5P0DHcgX3ailGMYmcOCFq2LuqUpn8dlZ/AUmpIL2KLNuHa7wAosmunbtiq1bxd/Nw6FDh9CyZUtkZWUZFj1HpOvxom/OS61yDVSx1HJbV9S3IeDbn5Iw4JDo4iQhX/SfJwIDTTyZunHdTboo169q9V3uFaPxv2vX3nATTUyaNAlTp978WLNDhw7YsWOHem1E9E78iI6u3A9O/aBmv7fcFiHmhN2/vyFOXf+eI2uRL/qdXaIFRnBgEpoP5/TpVEYO1rcKJY9oYtOmTejRo4d6PXbsWMyePVu9JvSKpilUjGsTsoLrqq2W5DYNLvoz55kpo/HB2bkcWYtc0XWbC9ESRpR7PgNq3ADubSo6wRpc6QEPouvUqaP21/Hx8ejbty/XaugRnYQ0nA6NQnDNJ9VWbCV7M77CoMMiY0lA7vSq7QN8YTExYlBTWmSJaPFLeVDIWrAYSE7hLxZOSkoKRowYoRa9bMN5jHHtQ2PXOsypdiuiGs+0XDJB/TkN3mQgt0XP/zJfi7KUhH8Brw/lQNBK/L8e6KaVCNHaPbTownBv0VtwFhtcp7EBZ8TVNbWuXvmm+LjFfpQtYfz2qF5eSY7DqlRjO0D1IE90zYbA0r0cSGTROGDduxy40ayJJnz2W1zhHRLdBJWE3NO46GFVyAcRCWhTycDiRRPsuvwZhh4VP7fFyBP96HPAkIIX7lnKs52A4/s5kMPztafjqfDxHMmlw54aSP/V3O3UgpDXR58Q80tqaRdOc4VE4uSMVHOgkbUvJO/L2K6OvMuVCOIa65A/vSIi2wPtHtRKmM6bHUZZLwZkC02uJC2EqqVrqP1y9TKFL9o3S9KVBMRfXIcvLq7F2cz/ca31+Ea0OxF3itH4Q5r08PpcaREzhgHx/+TAGuihQ9eqvTmyBuqHNbnrcP6GDzKewPei3WnSWkjnll5L25lYJM6fAib0AX44wRVFY3D4WIypPZOjorH90mZVLAlO+zWVa32Hf0W70/AOTTiJN3InLVXMn3d9IspG4NAurrSO4JIh6BLaSytVe4lBjf5hzZeXNqopOT59HS5lpXGtf7CPaHfqNRfSOb3X97DX6WxyrtwjiVwpn/IlglXZJP0+UUoqN2+PdYn/cvpbar0/ZV3mr/gfe4p2p3ZTVXidNk8i5chqTe5R/6/Lopsm94XGosstsVCUkohPW6MKvpb9M3+HvbC16IZBzfmhQU9EVohByi8nEH9pPRJEa9mXoT1x8gvlK2i3d3NK6bKiE16b+9Dl2k/8jfbBdqIjKrRC5yras9zGwS24Nj/nMk+JNLleiF+H3Zc/51qJVLolV+xd2tOvAskRTiUjnSv9iy1E3xHSTn3UR3LrlW/Ctfqhu0gJJF20dBoAWUa1cBYrSqvOXGmQvV8I4fyINf0cV/oev4mme8bag/qeuL2cuZ2KeaEpzPBjQopVNG0DvGFyx4gnDm7nli7Ep8q7OeIJn4puX7n77y23RhnRWiwkI+sS+hxsiTOZ+h5X6qb3M9rqVas5msTSRbFo3l8Y0kV3Cn3495ZbpbTo5yQx5sRj2JRmcn+1NyZ8ANyT53QkKzl5IFd68mGutBZpomc1WomOVR5CcMmKXCOP5efexPT/PseRBCqGAgtF2q1ubgeHIVKOAu9OAPbrXAatE2lPr2hE7AvJtHpSqmQi4yKw4Oa919KoXN1yyYRE0euQ5cqzXFcCLyfnXxLUAdXVvc1HlUe4Rid0+M3m1UDccKBengFi0hZglbmdHIaggZoEpInO/O26Klsm05KfwdGr2oKD7rhNPVAmRYlFvNJV3dts6gS/9ncBr04GvtkpPq3ilz7mWW21CvHhK8CBL7VrWVA/LQF5Cw8ElL5lsfHCR7ieugHvKW1xQemHjUon9VAZ2tvsjfnz5yM2VsfgqnU0MGk8kChS6a7PgYnjgC8W564xtxrawJDkZbeKSaSOukNKVkLSndbd2Kf7yPTh+S5tPd66rKAsSvJXPHMOv6CWS6RiNx5//HGsWLECqamp6g6Nc+fcbmJQ6v5Cxw2Xf28VKV6MlOlmCm0gtIrPxaxhlug2JCC1Rf+UfaXId6quZF3EmgvLEPddL8QkVcS4k4+j3+UfvUr2RP369bFo0SL1Oiws7Pdrw/TtJkbil4BR3YFBkcDbL4hU/xV/sQhIStuE9Hl03xpD8XL9JRzp48cb59T+nR5g0N0udyYrUZgI8cvVQd4WvWXLFnTrdvMKy/Hjx2PGjBlaoLdFE7R75G7xbx06whWC0LDc++G09twINzKBXrfl329mEdJFh5auhh0x3lc0ns1MUdMyCU684nl6QQMu6ov14i6a9lzR3itPdOzYEdu2bTMmmkjaC3QtYGQfIubeJLwdi1d/1YWwTfycr/2FA+uRLppY2myrxy2j6mNHbrn7vTx2rIQy2Kv0UM/K1kuOaNprRXuuCuLYsWOIjo5GZlSEMdHE/HeBCV6WNZcPFrJp9QxLp8eaeaGNCLQhQRI+ET0w7BlMrKftPjhx7ZAmV7Tewz/rPyNzudJePfXeCCS6ReUEda8V7bkqjGXLlmHw2+JnNCqaGDQMWKvz75UqzcJZfFCI1g30Cpc3mhf4RHRYmZqIrf6k+uz4+NVvuVY/9EoDen+FUUj0zlX9MGDAAK4pnNjXpmFtnNsWH72kpYv+WmSssyYW/dGz7e5/En3LQK6Qg09EF4VWCEWiSNlmeD/oBwz7WfS9OtmZlIi7Xde0fVtG2bQFGCCvjy0qUqdXVmD2wNWvkYYpFY0dIFuSPvJmzzZ7QEy1Ruk7GMcf2Fr0XJGuY1CVI2PQ8cmm2P018De3t/IYYcpLIoW35cBe2Fb0o6iNOH7dkFHoYLcDMHG8ZA5vLgI23Dx/183c6UAZzy9W8Se2FE3voDDzWgNiBZLxDixYsUEp/LyJHY1NGmmybYYtRdNZnFUKeN1QYZxEhvmUnReSbLa/HvSYVmyE7US/hOboAXPryUjyVVh4C5HSN6VxM1CrptZtE2wlujPCMFUpeC13YdBp9/GQsHmNBmY0QDMK9dM2SuG2ER2EUmrKNsNGnFHfXyENSuHZ2RwYgEbgNBK3AbYRTZIbwfgasx9xXf5rDY4cM99f09ya5th+xhai26Ma2hRhvnyaTw2SyrIVwEqTm+x7GHxkKQFbiKbjFumE3A/xH67Rx1wcw2qc4sgHUKs+aeAIxxs3xCdxtJjYj+EK/2Gb1H0d2RjqSsRfXUm6TrGnD8cLLrknEeXjl+tCts4+d2ci0EGk7I90nlsqGduIzoFePkLnbJLIgsgSHwS/vbti2w5gGq9IKYh5C0W67q29itEm2E40cQiX1ZNzKTV7giTTi0r8xqw3gU89bNVNvQAMHAxMfpUr7IMtRedAqbm/azsuiMSewzLRj78nWr3fof764iUOBHRzpUM3MdeTs1zXCqhDtHUJR5BrtXKv66DykKsMSnj8Hk/l1ltvdRlh9+7dHv+dAkvvR1zIOOvCcyM8f91exWOlLUtH1PBYX1CRLppKu7s819us2Dp15+VLnOcrG7HLd6ciFYU/lGgH8ziiAwTbLw4sCuHh4ejfvz9H3hHdNObNm8dR8aJYi3bIxUndAYIjOkBwRAcIjugAwREdIDiiAwRHdIDgiA4QHNEBgiM6QHBEBwiO6ADBER0gOKIDBEd0QAD8H5e6jufXm80eAAAAAElFTkSuQmCC;" vertex="1" parent="VYeD_TeNYAqcukjlerHe-41">
          <mxGeometry x="36" width="98.04" height="90" as="geometry" />
        </mxCell>
        <mxCell id="VYeD_TeNYAqcukjlerHe-34" value="&lt;h1 style=&quot;margin-top: 0px;&quot;&gt;&lt;font style=&quot;font-size: 18px;&quot;&gt;Authentication&lt;/font&gt;&lt;/h1&gt;&lt;br style=&quot;padding: 0px; margin: 0px; text-wrap: nowrap;&quot;&gt;&lt;h1 style=&quot;margin-top: 0px;&quot;&gt;&lt;span style=&quot;background-color: rgb(255, 255, 255); text-wrap: nowrap; font-weight: normal;&quot;&gt;&lt;font style=&quot;font-size: 14px;&quot;&gt;JWT&lt;/font&gt;&lt;/span&gt;&lt;/h1&gt;&lt;p&gt;&lt;br&gt;&lt;/p&gt;" style="text;html=1;whiteSpace=wrap;overflow=hidden;rounded=0;align=center;" vertex="1" parent="VYeD_TeNYAqcukjlerHe-41">
          <mxGeometry y="90" width="180" height="120" as="geometry" />
        </mxCell>
        <mxCell id="VYeD_TeNYAqcukjlerHe-42" value="" style="group" vertex="1" connectable="0" parent="1">
          <mxGeometry x="474.7" y="410" width="139.99999999999994" height="205" as="geometry" />
        </mxCell>
        <mxCell id="VYeD_TeNYAqcukjlerHe-3" value="&#xa;" style="shape=image;verticalLabelPosition=bottom;labelBackgroundColor=#ffffff;verticalAlign=top;aspect=fixed;imageAspect=0;image=data:image/svg+xml,PHN2ZyB4bWxuczpjYz0iaHR0cDovL2NyZWF0aXZlY29tbW9ucy5vcmcvbnMjIiB4bWxuczpkYz0iaHR0cDovL3B1cmwub3JnL2RjL2VsZW1lbnRzLzEuMS8iIHhtbG5zOmlua3NjYXBlPSJodHRwOi8vd3d3Lmlua3NjYXBlLm9yZy9uYW1lc3BhY2VzL2lua3NjYXBlIiB4bWxuczpyZGY9Imh0dHA6Ly93d3cudzMub3JnLzE5OTkvMDIvMjItcmRmLXN5bnRheC1ucyMiIHhtbG5zOnNvZGlwb2RpPSJodHRwOi8vc29kaXBvZGkuc291cmNlZm9yZ2UubmV0L0RURC9zb2RpcG9kaS0wLmR0ZCIgeG1sbnM6c3ZnPSJodHRwOi8vd3d3LnczLm9yZy8yMDAwL3N2ZyIgeG1sbnM9Imh0dHA6Ly93d3cudzMub3JnLzIwMDAvc3ZnIiB4bWxuczp4bGluaz0iaHR0cDovL3d3dy53My5vcmcvMTk5OS94bGluayIgdmVyc2lvbj0iMS4xIiBpZD0ic3ZnMjA5NjE3IiBpbmtzY2FwZTp2ZXJzaW9uPSIwLjkyLjMgKDI0MDU1NDYsIDIwMTgtMDMtMTEpIiBzb2RpcG9kaTpkb2NuYW1lPSJzd2FnZ2VyLnN2ZyIgeD0iMHB4IiB5PSIwcHgiIHZpZXdCb3g9IjAgMCA3Ni41IDc1LjYzIiBzdHlsZT0iZW5hYmxlLWJhY2tncm91bmQ6bmV3IDAgMCA3Ni41IDc1LjYzOyIgeG1sOnNwYWNlPSJwcmVzZXJ2ZSI+JiN4YTs8c29kaXBvZGk6bmFtZWR2aWV3IGJvcmRlcmNvbG9yPSIjNjY2NjY2IiBib3JkZXJvcGFjaXR5PSIxIiBmaXQtbWFyZ2luLWJvdHRvbT0iMCIgZml0LW1hcmdpbi1sZWZ0PSIwIiBmaXQtbWFyZ2luLXJpZ2h0PSIwIiBmaXQtbWFyZ2luLXRvcD0iMCIgZ3JpZHRvbGVyYW5jZT0iMTAiIGd1aWRldG9sZXJhbmNlPSIxMCIgaWQ9Im5hbWVkdmlldzIwOTYxOSIgaW5rc2NhcGU6Y3VycmVudC1sYXllcj0ic3ZnMjA5NjE3IiBpbmtzY2FwZTpjeD0iNTEiIGlua3NjYXBlOmN5PSI1MC40MjEyNjEiIGlua3NjYXBlOnBhZ2VvcGFjaXR5PSIwIiBpbmtzY2FwZTpwYWdlc2hhZG93PSIyIiBpbmtzY2FwZTp3aW5kb3ctaGVpZ2h0PSIxMDE3IiBpbmtzY2FwZTp3aW5kb3ctbWF4aW1pemVkPSIxIiBpbmtzY2FwZTp3aW5kb3ctd2lkdGg9IjE5MjAiIGlua3NjYXBlOndpbmRvdy14PSItOCIgaW5rc2NhcGU6d2luZG93LXk9Ii04IiBpbmtzY2FwZTp6b29tPSI4LjU5Nzk5NjkiIG9iamVjdHRvbGVyYW5jZT0iMTAiIHBhZ2Vjb2xvcj0iI2ZmZmZmZiIgc2hvd2dyaWQ9ImZhbHNlIj4mI3hhOwk8L3NvZGlwb2RpOm5hbWVkdmlldz4mI3hhOzxnIGlkPSJzaGFwZTEwOTEtMiI+JiN4YTsJPHRpdGxlIGlkPSJ0aXRsZTIwOTU4NCI+U2hlZXQuMTA5MTwvdGl0bGU+JiN4YTsJPHBhdGggaWQ9InBhdGgyMDk1ODYiIGlua3NjYXBlOmNvbm5lY3Rvci1jdXJ2YXR1cmU9IjAiIHN0eWxlPSJmaWxsOiM2RDlFMDA7IiBkPSJNMCwzNy44MUMwLDE2Ljk0LDE3LjEzLDAsMzguMjUsMCAgIEM1OS40MiwwLDc2LjUsMTYuOTQsNzYuNSwzNy44MWMwLDIwLjkzLTE3LjA4LDM3LjgyLTM4LjI1LDM3LjgyQzE3LjEzLDc1LjYzLDAsNTguNzQsMCwzNy44MXoiLz4mI3hhOzwvZz4mI3hhOzxnIGlkPSJzaGFwZTEwOTItNCIgdHJhbnNmb3JtPSJ0cmFuc2xhdGUoMjQuMDQ2MSwtMzQuMjk4NCkiPiYjeGE7CTx0aXRsZSBpZD0idGl0bGUyMDk1ODkiPlNoZWV0LjEwOTI8L3RpdGxlPiYjeGE7CTxwYXRoIGlkPSJwYXRoMjA5NTkxIiBpbmtzY2FwZTpjb25uZWN0b3ItY3VydmF0dXJlPSIwIiBzdHlsZT0iZmlsbDojRkZGRkZGOyIgZD0iTTYuNjksNzIuMjhjMCwxLjgxLTEuNTMsMy4zNS0zLjM0LDMuMzUgICBDMS4zOSw3NS42MywwLDc0LjA5LDAsNzIuMjhzMS41My0zLjM1LDMuMzUtMy4zNUM1LjE2LDY4LjkzLDYuNjksNzAuMzMsNi42OSw3Mi4yOHoiLz4mI3hhOzwvZz4mI3hhOzxnIGlkPSJzaGFwZTEwOTMtNiIgdHJhbnNmb3JtPSJ0cmFuc2xhdGUoMzQuMDg2NywtMzQuMjk4NCkiPiYjeGE7CTx0aXRsZSBpZD0idGl0bGUyMDk1OTQiPlNoZWV0LjEwOTM8L3RpdGxlPiYjeGE7CTxjaXJjbGUgaWQ9ImVsbGlwc2UyMDk1OTYiIHN0eWxlPSJmaWxsOiNGRkZGRkY7IiBjeD0iMy4zNSIgY3k9IjcyLjI4IiByPSIzLjM1Ii8+JiN4YTs8L2c+JiN4YTs8ZyBpZD0ic2hhcGUxMDk0LTgiIHRyYW5zZm9ybT0idHJhbnNsYXRlKDQ0LjEyNzQsLTM0LjI5ODQpIj4mI3hhOwk8dGl0bGUgaWQ9InRpdGxlMjA5NTk5Ij5TaGVldC4xMDk0PC90aXRsZT4mI3hhOwk8Y2lyY2xlIGlkPSJlbGxpcHNlMjA5NjAxIiBzdHlsZT0iZmlsbDojRkZGRkZGOyIgY3g9IjMuMzUiIGN5PSI3Mi4yOCIgcj0iMy4zNSIvPiYjeGE7PC9nPiYjeGE7PGcgaWQ9InNoYXBlMTA5NS0xMCIgdHJhbnNmb3JtPSJ0cmFuc2xhdGUoMTIuNTcxMSwtMTUuNjQ4NykiPiYjeGE7CTx0aXRsZSBpZD0idGl0bGUyMDk2MDQiPlNoZWV0LjEwOTU8L3RpdGxlPiYjeGE7CTxwYXRoIGlkPSJwYXRoMjA5NjA2IiBpbmtzY2FwZTpjb25uZWN0b3ItY3VydmF0dXJlPSIwIiBzdHlsZT0iZmlsbDojRkZGRkZGOyIgZD0iTTMuNTgsNDAuNTh2NS42NGMwLDMuMjEtMS4xOSw0LjgyLTMuNTgsNC44MiAgIHY0LjY1YzIuMzksMCwzLjU4LDEuNTUsMy41OCw0LjY1djYuMDdjMCwzLjE2LDAuNjYsNS40NSwxLjk2LDYuODRjMS40OSwxLjU5LDQuMTEsMi4zOCw3Ljg1LDIuMzhWNzAuOWMtMS4zNCwwLTIuMy0wLjM0LTIuODktMS4wMyAgIGMtMC41OS0wLjY5LTAuODgtMS44Ni0wLjg4LTMuNTF2LTUuMThjMC00LjEzLTEuMjEtNi43Mi0zLjYzLTcuNzZ2LTAuMWMyLjQyLTEuMDYsMy42My0zLjYxLDMuNjMtNy42NnYtNS4zOCAgIGMwLTIuOTMsMS4yNS00LjQsMy43Ny00LjR2LTQuNzJjLTMuNjgsMC02LjI3LDAuNzktNy43OCwyLjM4QzQuMjYsMzQuOTYsMy41OCwzNy4zMSwzLjU4LDQwLjU4eiIvPiYjeGE7PC9nPiYjeGE7PGcgaWQ9InNoYXBlMTA5Ni0xMiIgdHJhbnNmb3JtPSJyb3RhdGUoMTgwLDMyLjUxMjUsNDUuNTY5NDUpIj4mI3hhOwk8dGl0bGUgaWQ9InRpdGxlMjA5NjA5Ij5TaGVldC4xMDk2PC90aXRsZT4mI3hhOwk8cGF0aCBpZD0icGF0aDIwOTYxMSIgaW5rc2NhcGU6Y29ubmVjdG9yLWN1cnZhdHVyZT0iMCIgc3R5bGU9ImZpbGw6I0ZGRkZGRjsiIGQ9Ik0zLjU4LDQwLjU4djUuNjRjMCwzLjIxLTEuMTksNC44Mi0zLjU4LDQuODIgICB2NC42NWMyLjM5LDAsMy41OCwxLjU1LDMuNTgsNC42NXY2LjA3YzAsMy4xNiwwLjY2LDUuNDUsMS45Niw2Ljg0YzEuNDksMS41OSw0LjExLDIuMzgsNy44NSwyLjM4VjcwLjljLTEuMzQsMC0yLjMtMC4zNC0yLjg5LTEuMDMgICBjLTAuNTktMC42OS0wLjg4LTEuODYtMC44OC0zLjUxdi01LjE4YzAtNC4xMy0xLjIxLTYuNzItMy42My03Ljc2di0wLjFjMi40Mi0xLjA2LDMuNjMtMy42MSwzLjYzLTcuNjZ2LTUuMzggICBjMC0yLjkzLDEuMjUtNC40LDMuNzctNC40di00LjcyYy0zLjY4LDAtNi4yNywwLjc5LTcuNzgsMi4zOEM0LjI2LDM0Ljk2LDMuNTgsMzcuMzEsMy41OCw0MC41OHoiLz4mI3hhOzwvZz4mI3hhOzwvc3ZnPg==;" vertex="1" parent="VYeD_TeNYAqcukjlerHe-42">
          <mxGeometry x="25.930000000000007" width="88.14" height="87" as="geometry" />
        </mxCell>
        <mxCell id="VYeD_TeNYAqcukjlerHe-32" value="&lt;span style=&quot;text-wrap: nowrap; background-color: rgb(255, 255, 255);&quot;&gt;&lt;font style=&quot;font-size: 18px;&quot;&gt;&lt;b style=&quot;&quot;&gt;API&lt;/b&gt;&lt;/font&gt;&lt;/span&gt;&lt;div&gt;&lt;font style=&quot;font-size: 14px;&quot;&gt;&lt;span style=&quot;text-wrap: nowrap; background-color: rgb(255, 255, 255);&quot;&gt;&lt;font style=&quot;&quot;&gt;&lt;br&gt;&lt;/font&gt;&lt;/span&gt;&lt;/font&gt;&lt;/div&gt;&lt;div&gt;&lt;font style=&quot;font-size: 14px;&quot;&gt;&lt;span style=&quot;text-wrap: nowrap; background-color: rgb(255, 255, 255);&quot;&gt;&lt;font style=&quot;&quot;&gt;RESTful.API&lt;br&gt;Swag&lt;/font&gt;ger&lt;/span&gt;&lt;br style=&quot;padding: 0px; margin: 0px; text-wrap: nowrap;&quot;&gt;&lt;span style=&quot;text-wrap: nowrap; background-color: rgb(255, 255, 255);&quot;&gt;C#&lt;/span&gt;&lt;br style=&quot;padding: 0px; margin: 0px; text-wrap: nowrap;&quot;&gt;&lt;span style=&quot;text-wrap: nowrap; background-color: rgb(255, 255, 255);&quot;&gt;Asp.NET Core API&lt;/span&gt;&lt;/font&gt;&lt;/div&gt;" style="text;html=1;align=center;verticalAlign=middle;whiteSpace=wrap;rounded=0;" vertex="1" parent="VYeD_TeNYAqcukjlerHe-42">
          <mxGeometry y="95" width="140" height="110" as="geometry" />
        </mxCell>
        <mxCell id="VYeD_TeNYAqcukjlerHe-43" value="" style="group" vertex="1" connectable="0" parent="1">
          <mxGeometry x="707.63" y="300" width="150" height="370" as="geometry" />
        </mxCell>
        <mxCell id="28heIlWIprtDJxRmpmQK-6" value="" style="rounded=0;whiteSpace=wrap;html=1;fillColor=#f5f5f5;strokeColor=none;fontColor=#333333;labelBackgroundColor=none;" parent="VYeD_TeNYAqcukjlerHe-43" vertex="1">
          <mxGeometry width="150" height="370" as="geometry" />
        </mxCell>
        <mxCell id="eWjkR0wsdmifyLcniZH0-7" value="" style="shape=image;verticalLabelPosition=bottom;labelBackgroundColor=none;verticalAlign=top;aspect=fixed;imageAspect=0;image=data:image/svg+xml,PHN2ZyB4bWxuczpjYz0iaHR0cDovL2NyZWF0aXZlY29tbW9ucy5vcmcvbnMjIiB4bWxuczpkYz0iaHR0cDovL3B1cmwub3JnL2RjL2VsZW1lbnRzLzEuMS8iIHhtbG5zOmlua3NjYXBlPSJodHRwOi8vd3d3Lmlua3NjYXBlLm9yZy9uYW1lc3BhY2VzL2lua3NjYXBlIiB4bWxuczpyZGY9Imh0dHA6Ly93d3cudzMub3JnLzE5OTkvMDIvMjItcmRmLXN5bnRheC1ucyMiIHhtbG5zOnNvZGlwb2RpPSJodHRwOi8vc29kaXBvZGkuc291cmNlZm9yZ2UubmV0L0RURC9zb2RpcG9kaS0wLmR0ZCIgeG1sbnM6c3ZnPSJodHRwOi8vd3d3LnczLm9yZy8yMDAwL3N2ZyIgeG1sbnM9Imh0dHA6Ly93d3cudzMub3JnLzIwMDAvc3ZnIiB4bWxuczp4bGluaz0iaHR0cDovL3d3dy53My5vcmcvMTk5OS94bGluayIgdmVyc2lvbj0iMS4xIiBpZD0ic3ZnNjAyNDAiIGlua3NjYXBlOnZlcnNpb249IjAuOTIuMyAoMjQwNTU0NiwgMjAxOC0wMy0xMSkiIHNvZGlwb2RpOmRvY25hbWU9ImF6dXJlX3BvcnRhbF9hcHBfc2VydmljZXNfZW52aXJvbm1lbnRzLnN2ZyIgeD0iMHB4IiB5PSIwcHgiIHZpZXdCb3g9IjAgMCAyNy4yMSAyNy4xNCIgc3R5bGU9ImVuYWJsZS1iYWNrZ3JvdW5kOm5ldyAwIDAgMjcuMjEgMjcuMTQ7IiB4bWw6c3BhY2U9InByZXNlcnZlIj4mI3hhOzxzb2RpcG9kaTpuYW1lZHZpZXcgYm9yZGVyY29sb3I9IiM2NjY2NjYiIGJvcmRlcm9wYWNpdHk9IjEiIGZpdC1tYXJnaW4tYm90dG9tPSIwIiBmaXQtbWFyZ2luLWxlZnQ9IjAiIGZpdC1tYXJnaW4tcmlnaHQ9IjAiIGZpdC1tYXJnaW4tdG9wPSIwIiBncmlkdG9sZXJhbmNlPSIxMCIgZ3VpZGV0b2xlcmFuY2U9IjEwIiBpZD0ibmFtZWR2aWV3NjAyNDIiIGlua3NjYXBlOmN1cnJlbnQtbGF5ZXI9InN2ZzYwMjQwIiBpbmtzY2FwZTpjeD0iMTkuMzcxMzk1IiBpbmtzY2FwZTpjeT0iMTMuMzQ4NDkxIiBpbmtzY2FwZTpwYWdlb3BhY2l0eT0iMCIgaW5rc2NhcGU6cGFnZXNoYWRvdz0iMiIgaW5rc2NhcGU6d2luZG93LWhlaWdodD0iMTAxNyIgaW5rc2NhcGU6d2luZG93LW1heGltaXplZD0iMSIgaW5rc2NhcGU6d2luZG93LXdpZHRoPSIxOTIwIiBpbmtzY2FwZTp3aW5kb3cteD0iLTgiIGlua3NjYXBlOndpbmRvdy15PSItOCIgaW5rc2NhcGU6em9vbT0iMTUuOTQxNjkxIiBvYmplY3R0b2xlcmFuY2U9IjEwIiBwYWdlY29sb3I9IiNmZmZmZmYiIHNob3dncmlkPSJmYWxzZSI+JiN4YTsJPC9zb2RpcG9kaTpuYW1lZHZpZXc+JiN4YTs8ZyBpZD0iZzYwMjM4IiB0cmFuc2Zvcm09InRyYW5zbGF0ZSgtMjAuMDM4MiwtMy42MjcpIj4mI3hhOwk8dGl0bGUgaWQ9InRpdGxlNjAyMDUiPlBhZ2UtMTwvdGl0bGU+JiN4YTsJPGcgaWQ9Imdyb3VwNDM3Mi0xIiB0cmFuc2Zvcm09InRyYW5zbGF0ZSgyMC4wMzgyLC0yNi45MTU3KSI+JiN4YTsJCTx0aXRsZSBpZD0idGl0bGU2MDIwNyI+QXp1cmUgUG9ydGFsIC0gQXBwIFNlcnZpY2VzIEVudmlyb25tZW50czwvdGl0bGU+JiN4YTsJCTxnIGlkPSJncm91cDQzNzMtMiI+JiN4YTsJCQk8dGl0bGUgaWQ9InRpdGxlNjAyMDkiPlNoZWV0LjQzNzM8L3RpdGxlPiYjeGE7CQkJPGcgaWQ9InNoYXBlNDM3NC0zIj4mI3hhOwkJCQk8dGl0bGUgaWQ9InRpdGxlNjAyMTEiPlNoZWV0LjQzNzQ8L3RpdGxlPiYjeGE7CQkJCTxwYXRoIGlkPSJwYXRoNjAyMTMiIGlua3NjYXBlOmNvbm5lY3Rvci1jdXJ2YXR1cmU9IjAiIHN0eWxlPSJmaWxsOiNBMEExQTI7IiBkPSJNMTAuOTksNTUuODNIMS45MnYtOWgxLjc5ICAgICAgYy0wLjItMC41My0wLjMzLTEuMTMtMC4zMy0xLjc5YzAsMCwwLTAuMDcsMC0wLjEzSDB2MTIuNzdoMTIuODR2LTcuNTRoLTEuODVWNTUuODN6Ii8+JiN4YTsJCQk8L2c+JiN4YTsJCQk8ZyBpZD0ic2hhcGU0Mzc1LTUiIHRyYW5zZm9ybT0idHJhbnNsYXRlKDE0LjM2NzMpIj4mI3hhOwkJCQk8dGl0bGUgaWQ9InRpdGxlNjAyMTYiPlNoZWV0LjQzNzU8L3RpdGxlPiYjeGE7CQkJCTxwYXRoIGlkPSJwYXRoNjAyMTgiIGlua3NjYXBlOmNvbm5lY3Rvci1jdXJ2YXR1cmU9IjAiIHN0eWxlPSJmaWxsOiNBMEExQTI7IiBkPSJNOS4yNyw0Ni44M2gxLjY1djlIMS44NXYtNS42OUgwdjcuNTRoMTIuODQgICAgICBWNDQuOTFIOC44MWMwLjMzLDAuNTMsMC40NiwxLjEyLDAuNDYsMS43OEM5LjI3LDQ2Ljc2LDkuMjcsNDYuNzYsOS4yNyw0Ni44M3oiLz4mI3hhOwkJCTwvZz4mI3hhOwkJCTxnIGlkPSJzaGFwZTQzNzYtNyIgdHJhbnNmb3JtPSJ0cmFuc2xhdGUoMC4wNjYyMDg4LC0xNC4zMDExKSI+JiN4YTsJCQkJPHRpdGxlIGlkPSJ0aXRsZTYwMjIxIj5TaGVldC40Mzc2PC90aXRsZT4mI3hhOwkJCQk8cGF0aCBpZD0icGF0aDYwMjIzIiBpbmtzY2FwZTpjb25uZWN0b3ItY3VydmF0dXJlPSIwIiBzdHlsZT0iZmlsbDojQTBBMUEyOyIgZD0iTTEuODUsNTUuNzZ2LTloOS4wN3Y1LjIzICAgICAgYzAuNi0wLjQsMS4yLTAuNzMsMS44Ni0wLjkzdi02LjE1SDB2MTIuNzdoMy43MWMwLjI2LTAuNzIsMC42Ni0xLjMyLDEuMTktMS44NUwxLjg1LDU1Ljc2eiIvPiYjeGE7CQkJPC9nPiYjeGE7CQkJPGcgaWQ9InNoYXBlNDM3Ny05IiB0cmFuc2Zvcm09InRyYW5zbGF0ZSgxNC4zNjczLC0xNC4zNjczKSI+JiN4YTsJCQkJPHRpdGxlIGlkPSJ0aXRsZTYwMjI2Ij5TaGVldC40Mzc3PC90aXRsZT4mI3hhOwkJCQk8cGF0aCBpZD0icGF0aDYwMjI4IiBpbmtzY2FwZTpjb25uZWN0b3ItY3VydmF0dXJlPSIwIiBzdHlsZT0iZmlsbDojQTBBMUEyOyIgZD0iTTEuODUsNTF2LTQuMTdoOS4wN3Y5aC0zLjkgICAgICBjMC4xMywwLjYsMC4yNiwxLjE5LDAuMjYsMS43OXYwLjA2aDUuNTZWNDQuOTFIMHY1Ljg5YzAuMTMsMCwwLjMzLDAsMC40NiwwQzAuOTMsNTAuOCwxLjM5LDUwLjg3LDEuODUsNTF6Ii8+JiN4YTsJCQk8L2c+JiN4YTsJCTwvZz4mI3hhOwkJPGcgaWQ9InNoYXBlNDM3OC0xMSIgdHJhbnNmb3JtPSJ0cmFuc2xhdGUoNC44OTk0NSwtOS4wMDQ0KSI+JiN4YTsJCQk8dGl0bGUgaWQ9InRpdGxlNjAyMzIiPlNoZWV0LjQzNzg8L3RpdGxlPiYjeGE7CQkJPHBhdGggaWQ9InBhdGg2MDIzNCIgaW5rc2NhcGU6Y29ubmVjdG9yLWN1cnZhdHVyZT0iMCIgc3R5bGU9ImZpbGw6IzdBQzNFMDsiIGQ9Ik0xNy4zNSw1NS43YzAtMS4xMy0wLjkzLTIuMDUtMS45OS0yLjA1ICAgICBjLTAuMDcsMC0wLjEzLDAtMC4yNiwwYzAuMTMtMC40NywwLjE5LTAuOTMsMC4xOS0xLjQ2YzAtMi45OC0yLjM4LTUuNDMtNS4zNi01LjQzYy0yLjM4LDAtNC4zNywxLjUyLTUuMSwzLjcxICAgICBjLTAuMzktMC4xMy0wLjc5LTAuMi0xLjE5LTAuMkMxLjU5LDUwLjI3LDAsNTEuOTIsMCw1My45OGMwLDIuMDUsMS42NiwzLjcsMy42NCwzLjdoMTEuOTJDMTYuNTUsNTcuNjIsMTcuMzUsNTYuNzYsMTcuMzUsNTUuN3oiLz4mI3hhOwkJPC9nPiYjeGE7CTwvZz4mI3hhOzwvZz4mI3hhOzwvc3ZnPg==;movable=0;resizable=0;rotatable=0;deletable=0;editable=0;locked=1;connectable=0;" parent="VYeD_TeNYAqcukjlerHe-43" vertex="1">
          <mxGeometry x="10" y="94" width="130" height="130" as="geometry" />
        </mxCell>
        <mxCell id="VYeD_TeNYAqcukjlerHe-25" value="&lt;div&gt;&lt;font size=&quot;3&quot;&gt;&lt;b&gt;&lt;br&gt;&lt;/b&gt;&lt;/font&gt;&lt;/div&gt;&lt;font size=&quot;3&quot;&gt;&lt;div style=&quot;font-weight: bold;&quot;&gt;&lt;font size=&quot;3&quot;&gt;&lt;b&gt;WEB server&lt;/b&gt;&lt;/font&gt;&lt;/div&gt;&lt;div style=&quot;font-weight: bold;&quot;&gt;&lt;font size=&quot;3&quot;&gt;&lt;b&gt;&lt;br&gt;&lt;/b&gt;&lt;/font&gt;&lt;/div&gt;Azure service&lt;/font&gt;" style="text;html=1;align=center;verticalAlign=middle;whiteSpace=wrap;rounded=0;movable=1;resizable=1;rotatable=1;deletable=1;editable=1;locked=0;connectable=1;" vertex="1" parent="VYeD_TeNYAqcukjlerHe-43">
          <mxGeometry x="5" y="224" width="140" height="80" as="geometry" />
        </mxCell>
        <mxCell id="VYeD_TeNYAqcukjlerHe-44" value="" style="group" vertex="1" connectable="0" parent="1">
          <mxGeometry x="1050.63" y="240" width="150.29999999999995" height="240" as="geometry" />
        </mxCell>
        <mxCell id="VYeD_TeNYAqcukjlerHe-16" value="&#xa;" style="shape=image;verticalLabelPosition=bottom;labelBackgroundColor=#ffffff;verticalAlign=top;aspect=fixed;imageAspect=0;image=data:image/svg+xml,PHN2ZyB4bWxuczpjYz0iaHR0cDovL2NyZWF0aXZlY29tbW9ucy5vcmcvbnMjIiB4bWxuczpkYz0iaHR0cDovL3B1cmwub3JnL2RjL2VsZW1lbnRzLzEuMS8iIHhtbG5zOmlua3NjYXBlPSJodHRwOi8vd3d3Lmlua3NjYXBlLm9yZy9uYW1lc3BhY2VzL2lua3NjYXBlIiB4bWxuczpyZGY9Imh0dHA6Ly93d3cudzMub3JnLzE5OTkvMDIvMjItcmRmLXN5bnRheC1ucyMiIHhtbG5zOnNvZGlwb2RpPSJodHRwOi8vc29kaXBvZGkuc291cmNlZm9yZ2UubmV0L0RURC9zb2RpcG9kaS0wLmR0ZCIgeG1sbnM6c3ZnPSJodHRwOi8vd3d3LnczLm9yZy8yMDAwL3N2ZyIgeG1sbnM9Imh0dHA6Ly93d3cudzMub3JnLzIwMDAvc3ZnIiB4bWxuczp4bGluaz0iaHR0cDovL3d3dy53My5vcmcvMTk5OS94bGluayIgdmVyc2lvbj0iMS4xIiBpZD0ic3ZnOTY3NTQiIGlua3NjYXBlOnZlcnNpb249IjAuOTIuMyAoMjQwNTU0NiwgMjAxOC0wMy0xMSkiIHNvZGlwb2RpOmRvY25hbWU9ImF6dXJlX3NxbF9kYXRhYmFzZS5zdmciIHg9IjBweCIgeT0iMHB4IiB2aWV3Qm94PSIwIDAgMzEuMSAzMi42NCIgc3R5bGU9ImVuYWJsZS1iYWNrZ3JvdW5kOm5ldyAwIDAgMzEuMSAzMi42NDsiIHhtbDpzcGFjZT0icHJlc2VydmUiPiYjeGE7PHNvZGlwb2RpOm5hbWVkdmlldyBib3JkZXJjb2xvcj0iIzY2NjY2NiIgYm9yZGVyb3BhY2l0eT0iMSIgZml0LW1hcmdpbi1ib3R0b209IjAiIGZpdC1tYXJnaW4tbGVmdD0iMCIgZml0LW1hcmdpbi1yaWdodD0iMCIgZml0LW1hcmdpbi10b3A9IjAiIGdyaWR0b2xlcmFuY2U9IjEwIiBndWlkZXRvbGVyYW5jZT0iMTAiIGlkPSJuYW1lZHZpZXc5Njc1NiIgaW5rc2NhcGU6Y3VycmVudC1sYXllcj0ic3ZnOTY3NTQiIGlua3NjYXBlOmN4PSIyMC43MzI1MjciIGlua3NjYXBlOmN5PSItMS40Njk5NDMiIGlua3NjYXBlOnBhZ2VvcGFjaXR5PSIwIiBpbmtzY2FwZTpwYWdlc2hhZG93PSIyIiBpbmtzY2FwZTp3aW5kb3ctaGVpZ2h0PSIxMDE3IiBpbmtzY2FwZTp3aW5kb3ctbWF4aW1pemVkPSIxIiBpbmtzY2FwZTp3aW5kb3ctd2lkdGg9IjE5MjAiIGlua3NjYXBlOndpbmRvdy14PSItOCIgaW5rc2NhcGU6d2luZG93LXk9Ii04IiBpbmtzY2FwZTp6b29tPSI5LjQyNjIxNzkiIG9iamVjdHRvbGVyYW5jZT0iMTAiIHBhZ2Vjb2xvcj0iI2ZmZmZmZiIgc2hvd2dyaWQ9ImZhbHNlIj4mI3hhOwk8L3NvZGlwb2RpOm5hbWVkdmlldz4mI3hhOzxnIGlkPSJnOTY3NTIiIHRyYW5zZm9ybT0idHJhbnNsYXRlKC0yMC40NTA2LC0wLjc1MDYpIj4mI3hhOwk8dGl0bGUgaWQ9InRpdGxlOTY3MzIiPlBhZ2UtMTwvdGl0bGU+JiN4YTsJPGcgaWQ9Imdyb3VwMzUyMS0xIiB0cmFuc2Zvcm09InRyYW5zbGF0ZSgyMC40NTA2LC0zNS41OTA5KSI+JiN4YTsJCTx0aXRsZSBpZD0idGl0bGU5NjczNCI+QXp1cmUgU1FMIERhdGFiYXNlPC90aXRsZT4mI3hhOwkJPGcgaWQ9InNoYXBlMzUyMi0yIiB0cmFuc2Zvcm09InRyYW5zbGF0ZSg5Ljg1OTUsLTE1LjcyMzgpIj4mI3hhOwkJCTx0aXRsZSBpZD0idGl0bGU5NjczNiI+U2hlZXQuMzUyMjwvdGl0bGU+JiN4YTsJCQk8cGF0aCBpZD0icGF0aDk2NzM4IiBpbmtzY2FwZTpjb25uZWN0b3ItY3VydmF0dXJlPSIwIiBzdHlsZT0iZmlsbDojM0Y1NzY1OyIgZD0iTTAuMzIsNjguNjRjMC4xLDAuMTIsMC4yMSwwLjIsMC4zNCwwLjI2ICAgICBjMC4xMywwLjA2LDAuMjcsMC4wOCwwLjQyLDAuMDhjMC4xNCwwLDAuMjctMC4wMiwwLjM5LTAuMDhjMC4xMy0wLjA2LDAuMjQtMC4xNSwwLjM0LTAuMjdjMC4xLTAuMTIsMC4xOC0wLjI3LDAuMjQtMC40NiAgICAgYzAuMDUtMC4xOSwwLjA5LTAuNCwwLjA5LTAuNjZjMC0wLjIxLTAuMDItMC40MS0wLjA3LTAuNTljLTAuMDQtMC4xOS0wLjEtMC4zNi0wLjE5LTAuNWMtMC4wNy0wLjE0LTAuMTktMC4yNS0wLjMyLTAuMzQgICAgIGMtMC4xMi0wLjA3LTAuMjgtMC4xMi0wLjQ2LTAuMTJjLTAuMTksMC0wLjM2LDAuMDUtMC41LDAuMTJjLTAuMTQsMC4wOS0wLjI1LDAuMTktMC4zNSwwLjMzYy0wLjA4LDAuMTQtMC4xNSwwLjMtMC4xOSwwLjQ5ICAgICBDMC4wMiw2Ny4wOCwwLDY3LjI3LDAsNjcuNDhjMCwwLjI3LDAuMDMsMC41LDAuMDksMC42OVMwLjIzLDY4LjUyLDAuMzIsNjguNjR6Ii8+JiN4YTsJCTwvZz4mI3hhOwkJPGcgaWQ9InNoYXBlMzUyMy00IiB0cmFuc2Zvcm09InRyYW5zbGF0ZSgwLC0zLjgzODUpIj4mI3hhOwkJCTx0aXRsZSBpZD0idGl0bGU5Njc0MSI+U2hlZXQuMzUyMzwvdGl0bGU+JiN4YTsJCQk8cGF0aCBpZD0icGF0aDk2NzQzIiBpbmtzY2FwZTpjb25uZWN0b3ItY3VydmF0dXJlPSIwIiBzdHlsZT0iZmlsbDojM0Y1NzY1OyIgZD0iTTE0LjUzLDYyLjY2YzAuMjUsMCwwLjUsMC4wMiwwLjc1LDAuMDUgICAgIGMxLjItMi40MSwzLjYzLTMuOTksNi4zNi00LjExVjQ0LjU3YzAtMi4yNS00Ljg1LTQuMzktMTAuODMtNC4zOUM0Ljg0LDQwLjE4LDAsNDIuMjIsMCw0NC40NlY2NC43YzAsMi4wMiwzLjk3LDMuOTQsOS4xNSw0LjI4ICAgICBjLTAuMDQtMC4yOC0wLjA3LTAuNTctMC4wNy0wLjg2QzkuMDgsNjUuMTEsMTEuNTIsNjIuNjYsMTQuNTMsNjIuNjZ6IE0xOC40Miw1OC40OWgtMy43NXYtNS44aDEuNzV2NC40M2gyVjU4LjQ5eiBNMTAuODEsNDEuNzMgICAgIGM0LjI2LDAsNy43MSwxLjA1LDcuNzEsMi4zNnMtMy40NSwyLjM2LTcuNzEsMi4zNlMzLjEsNDUuNCwzLjEsNDQuMDlTNi41NSw0MS43MywxMC44MSw0MS43M3ogTTcuNTcsNTcuMTUgICAgIGMtMC4wMywwLjE0LTAuMDgsMC4yOC0wLjE2LDAuNDJjLTAuMDcsMC4xNC0wLjE3LDAuMjctMC4yOSwwLjM5QzcsNTguMDgsNi44NCw1OC4yLDYuNjUsNTguMjljLTAuMTgsMC4xLTAuNDEsMC4xNy0wLjY2LDAuMjIgICAgIEM1LjczLDU4LjU3LDUuNDMsNTguNiw1LjEsNTguNmMtMC4xOSwwLTAuMzYtMC4wMS0wLjUyLTAuMDRjLTAuMTctMC4wMi0wLjMyLTAuMDMtMC40Ni0wLjA3Yy0wLjE0LTAuMDItMC4yNy0wLjA2LTAuMzktMC4wOSAgICAgYy0wLjEyLTAuMDQtMC4yMS0wLjA4LTAuMy0wLjEyVjU2LjdjMC4xLDAuMDYsMC4yMSwwLjE0LDAuMzQsMC4yMWMwLjEyLDAuMDcsMC4yNiwwLjEzLDAuNCwwLjE5YzAuMTQsMC4wNSwwLjI4LDAuMSwwLjQ0LDAuMTMgICAgIGMwLjE1LDAuMDUsMC4yOSwwLjA2LDAuNDQsMC4wNmMwLjEyLDAsMC4yMy0wLjAxLDAuMzEtMC4wNGMwLjA3LTAuMDIsMC4xMy0wLjA1LDAuMTgtMC4wOWMwLjA0LTAuMDQsMC4wOC0wLjA4LDAuMDktMC4xMyAgICAgYzAuMDItMC4wNSwwLjAzLTAuMDksMC4wMy0wLjE0YzAtMC4wOS0wLjAzLTAuMTctMC4wNy0wLjI0Yy0wLjA0LTAuMDYtMC4xLTAuMTItMC4xOC0wLjE3Yy0wLjA5LTAuMDUtMC4xOC0wLjExLTAuMjktMC4xNSAgICAgYy0wLjExLTAuMDUtMC4yNC0wLjA5LTAuMzctMC4xNWMtMC4yNS0wLjA5LTAuNDctMC4yLTAuNjUtMC4zM2MtMC4xOC0wLjEzLTAuMzItMC4yNi0wLjQ0LTAuNDFjLTAuMTEtMC4xNS0wLjE5LTAuMzEtMC4yNC0wLjQ4ICAgICBjLTAuMDUtMC4xNi0wLjA4LTAuMzQtMC4wOC0wLjUyYzAtMC4yOSwwLjA2LTAuNTQsMC4xNy0wLjc3YzAuMTItMC4yMywwLjI4LTAuNDIsMC40OC0wLjU4YzAuMjEtMC4xNiwwLjQ2LTAuMjksMC43NS0wLjM3ICAgICBjMC4yOC0wLjA5LDAuNjEtMC4xMywwLjk2LTAuMTNjMC4yLDAsMC4zNywwLjAxLDAuNTQsMC4wMmMwLjE2LDAuMDIsMC4zMSwwLjAzLDAuNDQsMC4wNmMwLjEzLDAuMDIsMC4yNCwwLjA0LDAuMzUsMC4wNyAgICAgYzAuMSwwLjAzLDAuMiwwLjA1LDAuMjgsMC4wOHYxLjQ3Yy0wLjA5LTAuMDQtMC4xOC0wLjA5LTAuMjktMC4xNGMtMC4xLTAuMDUtMC4yMi0wLjA5LTAuMzQtMC4xMyAgICAgYy0wLjEyLTAuMDQtMC4yNS0wLjA3LTAuMzktMC4wOWMtMC4xNC0wLjAzLTAuMjgtMC4wNC0wLjQyLTAuMDRjLTAuMiwwLTAuMzUsMC4wNC0wLjQ3LDAuMTFjLTAuMTMsMC4wOC0wLjE5LDAuMTctMC4xOSwwLjMgICAgIGMwLDAuMDYsMC4wMiwwLjEyLDAuMDUsMC4xOGMwLjAyLDAuMDUsMC4wNywwLjA5LDAuMTIsMC4xM2MwLjA2LDAuMDUsMC4xNCwwLjEsMC4yMywwLjE0YzAuMSwwLjA2LDAuMjEsMC4xMSwwLjM1LDAuMTYgICAgIGMwLjI0LDAuMDksMC40NiwwLjIsMC42NywwLjMxYzAuMiwwLjExLDAuMzcsMC4yNCwwLjUyLDAuMzljMC4xNSwwLjE0LDAuMjYsMC4zMSwwLjM0LDAuNDljMC4wOCwwLjE4LDAuMTMsMC40LDAuMTMsMC42NCAgICAgQzcuNjIsNTYuODcsNy42LDU3LjAxLDcuNTcsNTcuMTV6IE04LjIxLDU2Ljg1QzguMDcsNTYuNSw4LDU2LjEsOCw1NS42N2MwLTAuNDYsMC4wNy0wLjg4LDAuMjItMS4yNSAgICAgYzAuMTUtMC4zOCwwLjM1LTAuNywwLjYyLTAuOTdjMC4yNi0wLjI4LDAuNTctMC40OSwwLjkzLTAuNjNjMC4zNy0wLjE1LDAuNzgtMC4yMywxLjIxLTAuMjNjMC40MSwwLDAuOCwwLjA3LDEuMTUsMC4yMSAgICAgYzAuMzUsMC4xNCwwLjY1LDAuMzQsMC45MSwwLjZjMC4yNSwwLjI1LDAuNDUsMC41NiwwLjU5LDAuOTNzMC4yMSwwLjc5LDAuMjEsMS4yNWMwLDAuMzMtMC4wMywwLjY0LTAuMTIsMC45MiAgICAgYy0wLjA4LDAuMjktMC4xOSwwLjU1LTAuMzQsMC43OGMtMC4xNCwwLjIzLTAuMzEsMC40My0wLjUsMC42Yy0wLjIsMC4xOC0wLjQxLDAuMzItMC42NCwwLjQybDEuOTUsMS42N2gtMi4yMmwtMS4yOC0xLjM3ICAgICBjLTAuMzctMC4wMy0wLjcyLTAuMTItMS4wNC0wLjI2Yy0wLjMzLTAuMTQtMC42Mi0wLjMzLTAuODYtMC41OUM4LjU1LDU3LjUsOC4zNiw1Ny4yMSw4LjIxLDU2Ljg1eiIvPiYjeGE7CQk8L2c+JiN4YTsJCTxnIGlkPSJzaGFwZTM1MjQtNiIgdHJhbnNmb3JtPSJ0cmFuc2xhdGUoOS44MjgpIj4mI3hhOwkJCTx0aXRsZSBpZD0idGl0bGU5Njc0NiI+U2hlZXQuMzUyNDwvdGl0bGU+JiN4YTsJCQk8cGF0aCBpZD0icGF0aDk2NzQ4IiBpbmtzY2FwZTpjb25uZWN0b3ItY3VydmF0dXJlPSIwIiBzdHlsZT0iZmlsbDojM0Y1NzY1OyIgZD0iTTIxLjI3LDY2LjIzYzAtMS40NS0xLjEzLTIuNjUtMi41Ni0yLjc0ICAgICBjMC4wOC0wLjQzLDAuMTItMC44NiwwLjEyLTEuMjljMC0zLjctMy4wMS02LjcxLTYuNzEtNi43MWMtMi43NiwwLTUuMjIsMS42OS02LjIzLDQuMjRjLTAuMzktMC4xLTAuNzktMC4xNi0xLjE5LTAuMTYgICAgIGMtMi41OSwwLTQuNywyLjExLTQuNyw0LjcxYzAsMi41NSwyLjA0LDQuNjQsNC42Myw0LjdoMTQuMDloMC41MmgtMC4wMkMyMC40LDY4LjY3LDIxLjI3LDY3LjQ5LDIxLjI3LDY2LjIzeiBNMTguNjgsNjguMjIgICAgIEw0LjcsNjguMjNjLTIuMTgsMC0zLjk1LTEuNzctMy45NS0zLjk1czEuNzctMy45NiwzLjk1LTMuOTZjMC40NCwwLDAuODcsMC4wOCwxLjMsMC4yMmwwLjM1LDAuMTNsMC4xMi0wLjM2ICAgICBjMC44Mi0yLjQzLDMuMDktNC4wNyw1LjY1LTQuMDdjMy4yOSwwLDUuOTYsMi42OCw1Ljk2LDUuOTZjMCwwLjUzLTAuMDcsMS4wNi0wLjIxLDEuNThsLTAuMTUsMC41NGwwLjU2LTAuMDcgICAgIGMwLjA4LTAuMDEsMC4xNi0wLjAyLDAuMjQtMC4wMmMxLjExLDAsMiwwLjksMiwyQzIwLjUyLDY3LjI3LDE5LjcxLDY4LjE0LDE4LjY4LDY4LjIyeiIvPiYjeGE7CQk8L2c+JiN4YTsJPC9nPiYjeGE7PC9nPiYjeGE7PC9zdmc+;" vertex="1" parent="VYeD_TeNYAqcukjlerHe-44">
          <mxGeometry width="150.3" height="160" as="geometry" />
        </mxCell>
        <mxCell id="VYeD_TeNYAqcukjlerHe-36" value="&lt;b&gt;&lt;font style=&quot;font-size: 18px;&quot;&gt;SQL&lt;/font&gt;&lt;/b&gt;&lt;div&gt;&lt;font style=&quot;font-size: 18px;&quot;&gt;&lt;br&gt;&lt;/font&gt;&lt;/div&gt;&lt;div&gt;&lt;font size=&quot;3&quot; style=&quot;&quot;&gt;MSSQL, SSMS&lt;/font&gt;&lt;/div&gt;" style="text;html=1;align=center;verticalAlign=middle;whiteSpace=wrap;rounded=0;" vertex="1" parent="VYeD_TeNYAqcukjlerHe-44">
          <mxGeometry y="170" width="150" height="70" as="geometry" />
        </mxCell>
        <mxCell id="VYeD_TeNYAqcukjlerHe-45" value="" style="group" vertex="1" connectable="0" parent="1">
          <mxGeometry x="1040.63" y="570" width="180" height="260" as="geometry" />
        </mxCell>
        <mxCell id="VYeD_TeNYAqcukjlerHe-9" value="&lt;div&gt;&lt;br&gt;&lt;/div&gt;" style="image;aspect=fixed;html=1;points=[];align=center;fontSize=12;image=img/lib/azure2/migrate/Data_Box.svg;" vertex="1" parent="VYeD_TeNYAqcukjlerHe-45">
          <mxGeometry x="10" width="143.04" height="137" as="geometry" />
        </mxCell>
        <mxCell id="VYeD_TeNYAqcukjlerHe-39" value="&lt;h1 style=&quot;margin-top: 0px;&quot;&gt;File storage&lt;/h1&gt;&lt;p&gt;&lt;font style=&quot;font-size: 14px;&quot;&gt;Azure Container&lt;/font&gt;&lt;/p&gt;" style="text;html=1;whiteSpace=wrap;overflow=hidden;rounded=0;" vertex="1" parent="VYeD_TeNYAqcukjlerHe-45">
          <mxGeometry y="140" width="180" height="120" as="geometry" />
        </mxCell>
        <mxCell id="VYeD_TeNYAqcukjlerHe-47" value="" style="edgeStyle=orthogonalEdgeStyle;rounded=0;orthogonalLoop=1;jettySize=auto;html=1;" edge="1" parent="1" source="VYeD_TeNYAqcukjlerHe-13" target="VYeD_TeNYAqcukjlerHe-3">
          <mxGeometry relative="1" as="geometry" />
        </mxCell>
        <mxCell id="VYeD_TeNYAqcukjlerHe-48" value="" style="edgeStyle=orthogonalEdgeStyle;rounded=0;orthogonalLoop=1;jettySize=auto;html=1;" edge="1" parent="1" source="VYeD_TeNYAqcukjlerHe-3" target="28heIlWIprtDJxRmpmQK-6">
          <mxGeometry relative="1" as="geometry" />
        </mxCell>
        <mxCell id="VYeD_TeNYAqcukjlerHe-52" value="&lt;h1 style=&quot;margin-top: 0px;&quot;&gt;System architecture&lt;/h1&gt;" style="text;html=1;whiteSpace=wrap;overflow=hidden;rounded=0;" vertex="1" parent="1">
          <mxGeometry x="100" y="100" width="400" height="120" as="geometry" />
        </mxCell>
        <mxCell id="VYeD_TeNYAqcukjlerHe-54" value="" style="edgeStyle=orthogonalEdgeStyle;rounded=0;orthogonalLoop=1;jettySize=auto;html=1;exitX=1;exitY=0.116;exitDx=0;exitDy=0;exitPerimeter=0;" edge="1" parent="1" source="28heIlWIprtDJxRmpmQK-2" target="VYeD_TeNYAqcukjlerHe-13">
          <mxGeometry relative="1" as="geometry">
            <mxPoint x="179.9999999999999" y="369" as="sourcePoint" />
          </mxGeometry>
        </mxCell>
      </root>
    </mxGraphModel>
  </diagram>
</mxfile>
